<svg xmlns="http://www.w3.org/2000/svg" version="1.1" xmlns:xlink="http://www.w3.org/1999/xlink" xmlns:svgjs="http://svgjs.dev/svgjs" width="2000" height="1680" viewBox="0 0 2000 1680"><g transform="matrix(1,0,0,1,0.3002993527338731,0.6814179438301835)"><svg viewBox="0 0 294 247" data-background-color="#ffffff" preserveAspectRatio="xMidYMid meet" height="1680" width="2000" xmlns="http://www.w3.org/2000/svg" xmlns:xlink="http://www.w3.org/1999/xlink"><g id="tight-bounds" transform="matrix(1,0,0,1,-0.044144004851887075,-0.09997365579206985)"><svg viewBox="0 0 294.08827146458066 247.2" height="247.2" width="294.08827146458066"><g><svg viewBox="0 0 294.08827146458066 247.2" height="247.2" width="294.08827146458066"><g><svg viewBox="0 0 294.08827146458066 247.2" height="247.2" width="294.08827146458066"><g id="textblocktransform"><svg viewBox="0 0 294.08827146458066 247.2" height="247.2" width="294.08827146458066" id="textblock"><g><svg viewBox="0 0 294.08827146458066 247.2" height="247.2" width="294.08827146458066"><path d="M293.4 53.02C292.017 27.36 288.077 20.227 288.077 20.227 275.979-6.202 260.882-0.506 247.319 3.292 223.372 3.446 199.523 9.091 175.632 12.119 125.486 12.581 74.912 4.986 25.015 23.717 20.328 29.464-4.863 24.846 0.834 56.304 2.327 69.39 7.774 83.913 7.608 95.922 8.355 98.026 9.392 93.202 9.834 96.23 11.383 104.39 13.913 100.541 15.987 105.365 13.097 118.246 15.171 128.971 17.148 140.21 13.664 143.135 9.198 141.749 7.194 151.449 6.986 158.479 5.866 157.145 4.636 156.837 3.737 156.632 1.926 157.402 2.23 159.608 3.267 167.152-1.185 171.514 1.608 178.904-0.314 186.91 2.935 193.838 2.493 202.511 2.437 204.255 2.742 205.744 3.226 206.154 5.369 208.361 2.244 212.672 2.576 217.342 24.559 249.262 48.408 227.195 70.93 241.872 76.778 231.608 72.382 245.516 74.718 243.36 76.543 240.846 77.871 251.263 79.931 245.362 80.249 243.668 79.765 239.665 80.898 240.435 81.493 240.846 82.018 240.743 82.101 238.382 82.226 234.841 81.133 237.048 80.843 235.201 83.982 225.861 83.207 248.081 86.152 247.158 86.014 244.438 85.157 240.538 86.913 241.051 88.655 237.151 88.71 233.918 90.258 242.693 90.314 244.592 90.59 245.926 91.033 246.85 95.872 237.305 100.683 250.237 105.757 245.926 108.868 241.205 111.854 248.492 115.006 246.696 116.113 245.259 117.232 242.693 118.297 247.004 131.335 247.928 145.23 244.079 157.59 247.158 190.619 241.41 225.916 249.518 260.743 241.923 268.956 238.998 277.486 234.841 285.491 231.506 285.491 231.506 291.976 222.371 291.976 181.316S293.358 145.393 293.566 112.703C293.773 80.013 294.741 78.679 293.358 53.02Z" opacity="1" fill="#ffcf31" data-fill-palette-color="tertiary"></path><g transform="matrix(1,0,0,1,55.76832,26.230666666666668)"><svg width="182.55163146458062" viewBox="1.4 -38.35 35.95 38.35" height="194.73866666666666" data-palette-color="#ffffff"><path d="M30.35 0L27-9.35 11.75-9.35 8.4 0 1.4 0 15.15-38.35 23.55-38.35 37.35 0 30.35 0ZM13.9-15.4L24.85-15.4 19.35-30.8 13.9-15.4Z" opacity="1" transform="matrix(1,0,0,1,0,0)" fill="#ffffff" class="wordmark-text-0" data-fill-palette-color="quaternary" id="text-0"></path></svg></g></svg></g></svg></g></svg></g></svg></g><defs></defs></svg><rect width="294.08827146458066" height="247.2" fill="none" stroke="none" visibility="hidden"></rect></g></svg></g></svg>